<?xml version="1.0" encoding="UTF-8" standalone="no"?>
<!-- Created with Inkscape (http://www.inkscape.org/) -->

<svg
   width="210mm"
   height="297mm"
   viewBox="0 0 210 297"
   version="1.1"
   id="svg1"
   xml:space="preserve"
   sodipodi:docname="character.svg"
   inkscape:version="1.4.2 (ebf0e940d0, 2025-05-08)"
   xmlns:inkscape="http://www.inkscape.org/namespaces/inkscape"
   xmlns:sodipodi="http://sodipodi.sourceforge.net/DTD/sodipodi-0.dtd"
   xmlns="http://www.w3.org/2000/svg"
   xmlns:svg="http://www.w3.org/2000/svg"><sodipodi:namedview
     id="namedview1"
     pagecolor="#505050"
     bordercolor="#eeeeee"
     borderopacity="1"
     inkscape:showpageshadow="0"
     inkscape:pageopacity="0"
     inkscape:pagecheckerboard="0"
     inkscape:deskcolor="#505050"
     inkscape:document-units="mm"
     inkscape:zoom="1.4142136"
     inkscape:cx="254.20489"
     inkscape:cy="183.14066"
     inkscape:window-width="1904"
     inkscape:window-height="1045"
     inkscape:window-x="0"
     inkscape:window-y="19"
     inkscape:window-maximized="1"
     inkscape:current-layer="layer1" /><defs
     id="defs1" /><g
     inkscape:label="CharReference"
     inkscape:groupmode="layer"
     id="layer1"><path
       style="fill:#e5a074;fill-opacity:0.99607843;stroke-width:0.865;stroke-linecap:round"
       d="m 51.170131,67.727167 c 0.02378,0.03924 1.081482,2.497516 1.081482,2.497516 0,0 1.006634,1.892886 2.554255,1.027201 1.547627,-0.865677 0.642512,-2.355781 0.642512,-2.355781 l -1.292779,-2.236886 z"
       id="path10-5"
       sodipodi:nodetypes="cczccc"
       inkscape:export-filename="reference.png"
       inkscape:export-xdpi="96"
       inkscape:export-ydpi="96" /><path
       style="fill:#632b8d;fill-opacity:1;stroke-width:0.865;stroke-linecap:round"
       d="M 46.507946,51.320049 42.860996,34.78812 c 0,0 -0.217394,-3.287961 -2.462359,-2.945597 -2.244963,0.342365 -1.20334,3.668134 -1.20334,3.668134 l 4.034217,16.814647 c 0,0 0.467721,1.761626 2.101147,1.208945 1.633425,-0.55268 1.177285,-2.2142 1.177285,-2.2142 z"
       id="path9-9"
       sodipodi:nodetypes="cczccsc" /><path
       style="fill:#632b8d;fill-opacity:1;stroke-width:0.865;stroke-linecap:round"
       d="m 54.505076,66.864813 -7.488489,-14.87084 c 0,0 -0.961373,-2.354121 -2.823879,-1.565233 -1.862508,0.788888 -0.563161,3.142377 -0.563161,3.142377 l 7.506681,14.498363 z"
       id="path9-2-2"
       sodipodi:nodetypes="cczccc" /><path
       style="fill:#4669a1;fill-opacity:1;stroke-width:0.865;stroke-linecap:round"
       d="M 51.129906,82.605878 35.887626,62.270339 c 0,0 -1.683896,-2.72958 -3.589427,-1.494252 -1.905529,1.235329 0.144588,3.927488 0.144588,3.927488 l 15.711556,20.656533 c 0,0 1.25468,0.83456 2.456935,-0.0737 1.202255,-0.90826 0.518628,-2.6805 0.518628,-2.6805 z"
       id="path9-0"
       sodipodi:nodetypes="cczcczcc" /><path
       style="fill:#4669a1;fill-opacity:1;stroke-width:0.865;stroke-linecap:round"
       d="M 61.953689,105.1216 52.125752,84.320118 c 0,0 -1.113605,-3.00766 -3.225031,-2.17163 -2.111428,0.83604 -0.631401,3.8791 -0.631401,3.8791 L 58.349487,106.9357 c 0,0 1.15246,1.21435 2.6647,0.5025 1.512239,-0.71185 0.939497,-2.31657 0.939497,-2.31657 z"
       id="path9-0-6"
       sodipodi:nodetypes="cczcczcc" /><path
       style="display:inline;fill:#4669a1;fill-opacity:1;stroke-width:0.865;stroke-linecap:round"
       d="m 59.716052,109.90603 9.258993,-7.03328 c 0,0 -0.868029,-1.44672 -2.203461,-1.82509 -1.335434,-0.37837 -2.648606,0.66772 -2.648606,0.66772 l -6.120731,4.65175 c 0,0 -0.244826,0.1558 -0.22257,0.55643 0.02225,0.40063 0.24483,0.66772 0.24483,0.66772 z"
       id="path11" /><path
       style="fill:#475578;fill-opacity:1;stroke-width:0.865;stroke-linecap:round"
       d="m 28.544461,87.404958 4.163735,-25.070392 c 0,0 0.809085,-3.103465 -1.400672,-3.626967 -2.209757,-0.523501 -2.738701,2.818792 -2.738701,2.818792 l -4.071418,25.631407 c 0,0 0.263924,1.48359 1.751254,1.72483 1.487334,0.24125 2.295779,-1.47765 2.295779,-1.47765 z"
       id="path9-0-7"
       sodipodi:nodetypes="cczcczcc" /><path
       style="fill:#475578;fill-opacity:1;stroke-width:0.865;stroke-linecap:round"
       d="M 7.5058385,102.52677 26.511776,89.562808 c 0,0 2.796181,-1.57082 1.639841,-3.52529 -1.156348,-1.95447 -3.93012,-0.0162 -3.93012,-0.0162 L 5.1497375,99.251088 c 0,0 -1.018907,1.328392 -0.07904,2.710512 0.939863,1.38212 2.435105,0.56516 2.435105,0.56516 z"
       id="path9-0-6-9"
       sodipodi:nodetypes="cczcczcc" /><path
       style="display:inline;fill:#475578;fill-opacity:1;stroke-width:0.865;stroke-linecap:round"
       d="m 2.3574485,100.50898 6.454215,9.67157 c 0,0 1.4970725,-0.77799 1.9563595,-2.0878 0.459281,-1.3098 -0.504592,-2.68446 -0.504592,-2.68446 L 5.9944795,99.014678 c 0,0 -0.140529,-0.25389 -0.541805,-0.25612 -0.401236,-0.002 -0.681433,0.20356 -0.681433,0.20356 z"
       id="path11-2" /><path
       style="display:inline;fill:#7a37ad;fill-opacity:1;stroke-width:0.865;stroke-linecap:round"
       d="m 26.57509,58.135791 h 12.77563 l 3.561151,-27.932779 c 0,0 -0.111286,-0.467402 -0.823516,-1.112861 -0.712231,-0.645459 -1.82509,-0.4674 -1.82509,-0.4674 l -7.589704,-0.1558 c 0,0 -0.86803,-0.133543 -1.758318,0.734486 -0.890288,0.868032 -0.845774,2.270234 -0.845774,2.270234 z"
       id="path1" /><path
       style="display:inline;fill:#4669a1;fill-opacity:1;stroke-width:0.865;stroke-linecap:round"
       d="m 26.57509,58.135789 -0.467401,4.718526 c 0,0 0.06677,1.068345 0.823516,1.624774 0.756745,0.556432 1.647032,0.48966 1.647032,0.48966 l 8.25742,-0.06677 c 0,0 0.940247,0.04052 1.569132,-0.600945 0.55643,-0.567557 0.55643,-1.179632 0.55643,-1.179632 l 0.389501,-4.985612 z"
       id="path2"
       sodipodi:nodetypes="ccsccsccc" /><path
       style="display:inline;fill:#edac81;fill-opacity:0.99607843;stroke-width:0.865;stroke-linecap:round"
       d="m 35.021695,22.673957 0.06677,5.119156 3.672437,0.122415 0.166929,-5.197057 z"
       id="path4"
       sodipodi:nodetypes="ccccc" /><path
       style="display:inline;fill:#632b8d;fill-opacity:1;stroke-width:0.865;stroke-linecap:round"
       d="m 34.66558,26.819918 -0.411758,1.75832 5.39737,1.713801 0.05564,-2.481675 z"
       id="path3" /><path
       style="fill:#fdbf99;fill-opacity:0.99607843;stroke-width:0.865;stroke-linecap:round"
       d="m 15.669065,63.833633 c -0.01113,0.04451 -1.012702,2.526191 -1.012702,2.526191 0,0 -0.635924,2.047416 1.068346,2.537319 1.70427,0.489904 2.125561,-1.201887 2.125561,-1.201887 l 0.678844,-2.492806 z"
       id="path10"
       sodipodi:nodetypes="cczccc" /><path
       style="fill:#6d309c;fill-opacity:1;stroke-width:0.865;stroke-linecap:round"
       d="m 24.041158,48.97303 9.175378,-14.227345 c 0,0 2.182387,-2.468834 0.358961,-3.822421 -1.823426,-1.353586 -3.452486,1.727304 -3.452486,1.727304 l -9.10359,14.701426 c 0,0 -0.922035,1.572239 0.62031,2.343412 1.542345,0.771173 2.401427,-0.722376 2.401427,-0.722376 z"
       id="path9"
       sodipodi:nodetypes="cczccsc" /><path
       style="fill:#6d309c;fill-opacity:1;stroke-width:0.865;stroke-linecap:round"
       d="m 18.62908,65.595399 5.291431,-15.786705 c 0,0 0.995396,-2.339939 -0.875977,-3.107558 -1.871374,-0.767619 -2.628416,1.811934 -2.628416,1.811934 l -5.014061,15.537439 z"
       id="path9-2"
       sodipodi:nodetypes="cczccc" /><path
       style="display:inline;fill:#fdbf99;fill-opacity:0.996078;stroke-width:0.0479889"
       d="m 31.702593,20.87276 c 0,0 0.58604,1.84279 2.2977,2.94083 3.34059,2.143019 5.71999,1.810719 6.97107,1.612809 1.59492,-0.2523 2.130678,-1.432409 2.130678,-1.432409 0,0 0.48524,-0.77982 0.48524,-2.21696 v -2.486751 c 0,0 1.04961,-0.0969 1.17878,-0.59746 0.12919,-0.50058 -0.53287,-1.11419 -0.53287,-1.11419 0,0 -0.27515,-0.1861 -0.55474,-0.4903 -0.0512,-0.21857 -0.0341,-1.34205 -0.0341,-1.34205 l -0.0276,-3.139819 c 0,0 0.22509,-2.22219 -2.132468,-4.0953196 -2.35756,-1.873129 -5.80941,-1.460789 -5.80941,-1.460789 0,0 -2.50289,0.0323 -4.45676,1.873129 -1.95387,1.8408296 -1.84437,4.0050686 -1.84437,4.0050686 l 0.73076,5.13816 z"
       id="path25-7"
       sodipodi:nodetypes="csscscsccccscsccc" /><path
       style="display:inline;fill:#f4e7da;fill-opacity:0.996078;stroke-width:0.0479889"
       d="m 31.691663,20.89841 c 0,0 0.35396,0.0342 0.98196,-0.525241 0.628,-0.55949 0.49098,-0.9477 0.49098,-0.9477 0,0 -1.1989,-0.36538 -1.74698,-1.43868 -0.54806,-1.07331 -0.0571,-1.91825 -0.0571,-1.91825 0,0 0.49098,-0.93629 1.3816,-1.02763 0.89061,-0.0913 1.42726,0.45672 1.42726,0.45672 0,0 0.46815,0.47956 0.57091,1.16465 0.5024,-0.0228 1.01621,-0.0343 1.01621,-0.0343 0,0 0.83353,-1.0733 0.81069,-1.99817 -0.0228,-0.92487 -0.13702,-1.67847 -0.13702,-1.67847 0,0 -0.55949,-1.929659 -2.08952,-2.352129 -1.53002,-0.42247 -2.74034,-0.11418 -2.74034,-0.11418 0,0 -1.35877,0.0685 -2.61476,1.55287 -1.25599,1.484349 -1.06189,3.082889 -1.06189,3.082889 0,0 -0.0571,1.75839 0.79928,3.16282 0.85636,1.40443 1.84974,1.98676 1.84974,1.98676 z"
       id="path26-0"
       sodipodi:nodetypes="cscscscccscscscscc" /><circle
       style="display:inline;fill:#2b2349;fill-opacity:1;stroke-width:0.0541315"
       id="path27-9"
       cx="41.391361"
       cy="16.000051"
       r="0.80497813" /><path
       style="display:inline;fill:#ffffff;fill-opacity:1;stroke-width:0.0479889"
       d="m 39.781413,19.819389 h 3.237038 v 2.432071 l -1.313088,-0.0171 c 0,0 -0.79927,0.0342 -1.42727,-0.81069 -0.62799,-0.844941 -0.49668,-1.604251 -0.49668,-1.604251 z"
       id="path28-36" /></g><g
     inkscape:groupmode="layer"
     id="layer5"
     inkscape:label="CharParts"><path
       style="fill:#4669a1;fill-opacity:1;stroke-width:0.865;stroke-linecap:round"
       d="m 113.02613,62.005834 0.10374,-25.41359 c 0,0 0.30272,-3.19288 -1.9623,-3.35652 -2.26502,-0.16363 -2.25303,3.22024 -2.25303,3.22024 l 0.077,25.95263 c 0,0 0.49763,1.42235 2.0044,1.42281 1.50677,4.4e-4 2.03013,-1.82555 2.03013,-1.82555 z"
       id="path9-0-2-9"
       sodipodi:nodetypes="cczcczcc"
       inkscape:export-filename="../samplePuppet1/atlas.png"
       inkscape:export-xdpi="250"
       inkscape:export-ydpi="250" /><path
       style="fill:#4669a1;fill-opacity:1;stroke-width:0.865;stroke-linecap:round"
       d="m 120.28892,62.299114 0.10251,-23.00607 c 0,0 0.29218,-3.19387 -1.97336,-3.35002 -2.26555,-0.15615 -2.24239,3.22765 -2.24239,3.22765 l 0.0791,23.21105 c 0,0 0.51617,1.5926 2.18754,1.60243 1.67138,0.01 1.84659,-1.68502 1.84659,-1.68502 z"
       id="path9-0-6-93-3"
       sodipodi:nodetypes="cczcczcc" /><path
       style="fill:#475578;fill-opacity:1;stroke-width:0.865;stroke-linecap:round"
       d="m 98.891007,61.592634 0.10374,-25.41359 c 0,0 0.30272,-3.19289 -1.96231,-3.35652 -2.26502,-0.16363 -2.25303,3.22024 -2.25303,3.22024 l 0.077,25.95263 c 0,0 0.49763,1.42235 2.0044,1.42281 1.50678,4.4e-4 2.03014,-1.82555 2.03014,-1.82555 z"
       id="path9-0-2-4-1"
       sodipodi:nodetypes="cczcczcc" /><path
       style="fill:#475578;fill-opacity:1;stroke-width:0.865;stroke-linecap:round"
       d="m 106.1538,61.885914 0.10251,-23.00608 c 0,0 0.29218,-3.19386 -1.97336,-3.35002 -2.26555,-0.15615 -2.24239,3.22766 -2.24239,3.22766 l 0.0791,23.21105 c 0,0 0.51617,1.5926 2.18754,1.60243 1.67138,0.01 1.84659,-1.68502 1.84659,-1.68502 z"
       id="path9-0-6-93-5-9"
       sodipodi:nodetypes="cczcczcc" /><path
       style="display:inline;fill:#4669a1;fill-opacity:1;stroke-width:0.865;stroke-linecap:round"
       d="m 109.5987,31.186604 11.62733,0.0376 c 0,0 0.18931,-1.67649 -0.64165,-2.78828 -0.83095,-1.11179 -2.50953,-1.07853 -2.50953,-1.07853 l -7.68775,-0.023 c 0,0 -0.28912,-0.025 -0.51481,0.30679 -0.22565,0.33178 -0.21114,0.67912 -0.21114,0.67912 z"
       id="path11-1-47" /><path
       style="display:inline;fill:#475578;fill-opacity:1;stroke-width:0.865;stroke-linecap:round"
       d="m 96.399347,31.117804 11.627343,0.0376 c 0,0 0.18931,-1.6765 -0.64165,-2.78828 -0.83095,-1.11179 -2.50953,-1.07853 -2.50953,-1.07853 l -7.687763,-0.023 c 0,0 -0.28912,-0.025 -0.51481,0.3068 -0.22565,0.33178 -0.21114,0.67912 -0.21114,0.67912 z"
       id="path11-1-4-8" /><path
       style="display:inline;fill:#7a37ad;fill-opacity:1;stroke-width:0.865;stroke-linecap:round"
       d="m 79.538267,58.797144 12.67342,-1.61277 -0.054,-27.26273 c 0,0 0.0571,-1.28756 -0.89694,-1.89614 -0.81036,-0.51692 -1.86949,-0.23326 -1.86949,-0.23326 l -7.54866,0.80356 c 0,0 -0.87794,-0.0229 -1.65153,0.95057 -0.77358,0.97348 -0.55241,2.35885 -0.55241,2.35885 z"
       id="path1-8-4"
       sodipodi:nodetypes="cccsccscc" /><path
       style="display:inline;fill:#4669a1;fill-opacity:1;stroke-width:0.865;stroke-linecap:round"
       d="m 79.538267,58.797144 0.132,4.73978 c 0,0 0.20113,1.05137 1.02204,1.50782 0.82093,0.45645 1.69567,0.27782 1.69567,0.27782 l 8.18293,-1.10864 c 0,0 0.93783,-0.0785 1.48071,-0.79422 0.48033,-0.63326 0.40307,-1.24044 0.40307,-1.24044 l -0.243,-4.99489 z"
       id="path2-4-5"
       sodipodi:nodetypes="ccsccsccc" /><path
       style="display:inline;fill:#edac81;fill-opacity:0.996078;stroke-width:0.865;stroke-linecap:round"
       d="m 121.761,59.181844 0.0668,5.11915 3.67243,0.12242 0.16693,-5.19706 z"
       id="path4-5-0"
       sodipodi:nodetypes="ccccc" /><path
       style="display:inline;fill:#632b8d;fill-opacity:1;stroke-width:0.865;stroke-linecap:round"
       d="m 83.610767,26.710474 -0.1865,1.79623 5.57054,1.01874 -0.25813,-2.46884 z"
       id="path3-0-3" /><path
       style="fill:#fdbf99;fill-opacity:0.996078;stroke-width:0.865;stroke-linecap:round"
       d="m 96.913717,71.375284 c 0.0457,-0.004 2.71738,0.15212 2.71738,0.15212 0,0 2.143273,-0.0519 2.062713,-1.82334 -0.0805,-1.77145 -1.818253,-1.62987 -1.818253,-1.62987 l -2.57902,0.15361 z"
       id="path10-6-6"
       sodipodi:nodetypes="cczccc" /><path
       style="fill:#6d309c;fill-opacity:1;stroke-width:0.865;stroke-linecap:round"
       d="m 99.154977,73.798444 -16.92931,-0.059 c 0,0 -3.25585,-0.50734 -3.41303,1.75813 -0.15718,2.26547 3.31592,1.97685 3.31592,1.97685 l 17.28993,-0.25704 c 0,0 1.821273,-0.071 1.639423,-1.78568 -0.18186,-1.71479 -1.902933,-1.63327 -1.902933,-1.63327 z"
       id="path9-3-1"
       sodipodi:nodetypes="cczccsc" /><path
       style="fill:#6d309c;fill-opacity:1;stroke-width:0.865;stroke-linecap:round"
       d="m 97.636927,68.007434 -16.64988,0.0322 c 0,0 -2.53536,-0.19523 -2.66453,1.82332 -0.12919,2.01857 2.55702,1.91136 2.55702,1.91136 l 16.32502,-0.21538 z"
       id="path9-2-20-5"
       sodipodi:nodetypes="cczccc" /><path
       style="fill:#e5a075;fill-opacity:0.996078;stroke-width:0.865;stroke-linecap:round"
       d="m 121.46107,71.188104 c 0.0457,-0.004 2.71737,0.15212 2.71737,0.15212 0,0 2.14327,-0.0519 2.06271,-1.82334 -0.0805,-1.77145 -1.81825,-1.62987 -1.81825,-1.62987 l -2.57901,0.15361 z"
       id="path10-6-8-5"
       sodipodi:nodetypes="cczccc" /><path
       style="fill:#632b8d;fill-opacity:1;stroke-width:0.865;stroke-linecap:round"
       d="m 123.70232,73.611264 -16.9293,-0.059 c 0,0 -3.25585,-0.50734 -3.41303,1.75813 -0.15718,2.26547 3.31592,1.97685 3.31592,1.97685 l 17.28992,-0.25704 c 0,0 1.82127,-0.071 1.63942,-1.78568 -0.18186,-1.71479 -1.90293,-1.63327 -1.90293,-1.63327 z"
       id="path9-3-6-4"
       sodipodi:nodetypes="cczccsc" /><path
       style="fill:#632b8d;fill-opacity:1;stroke-width:0.865;stroke-linecap:round"
       d="m 122.18428,67.820254 -16.64988,0.0322 c 0,0 -2.53536,-0.19523 -2.66453,1.82332 -0.12919,2.01857 2.55702,1.91136 2.55702,1.91136 l 16.32502,-0.21538 z"
       id="path9-2-20-8-7"
       sodipodi:nodetypes="cczccc" /><path
       style="display:inline;fill:#fdbf99;fill-opacity:0.996078;stroke-width:0.0479889"
       d="m 87.779037,18.018814 c 0,0 0.58604,1.84279 2.2977,2.94083 3.34059,2.14302 5.71999,1.81072 6.97107,1.61281 1.59492,-0.2523 2.13068,-1.43241 2.13068,-1.43241 0,0 0.48524,-0.77982 0.48524,-2.21696 v -2.48675 c 0,0 1.049603,-0.0969 1.178773,-0.59746 0.12919,-0.50058 -0.53287,-1.11419 -0.53287,-1.11419 0,0 -0.27515,-0.1861 -0.554733,-0.4903 -0.0512,-0.21857 -0.0341,-1.34205 -0.0341,-1.34205 l -0.0276,-3.13982 c 0,0 0.22509,-2.22219 -2.13247,-4.09532 -2.35756,-1.8731292 -5.80941,-1.4607892 -5.80941,-1.4607892 0,0 -2.50289,0.0323 -4.45676,1.8731292 -1.95387,1.84083 -1.84437,4.00507 -1.84437,4.00507 l 0.73076,5.13816 z"
       id="path25"
       sodipodi:nodetypes="csscscsccccscsccc" /><path
       style="display:inline;fill:#f4e7da;fill-opacity:0.996078;stroke-width:0.0479889"
       d="m 87.768107,18.044464 c 0,0 0.35396,0.0342 0.98196,-0.52524 0.628,-0.55949 0.49098,-0.9477 0.49098,-0.9477 0,0 -1.1989,-0.36538 -1.74698,-1.43868 -0.54806,-1.07331 -0.0571,-1.91825 -0.0571,-1.91825 0,0 0.49098,-0.93629 1.3816,-1.02763 0.89061,-0.0913 1.42726,0.45672 1.42726,0.45672 0,0 0.46815,0.47956 0.57091,1.16465 0.5024,-0.0228 1.01621,-0.0343 1.01621,-0.0343 0,0 0.83353,-1.0733 0.81069,-1.99817 -0.0228,-0.92487 -0.13702,-1.67847 -0.13702,-1.67847 0,0 -0.55949,-1.92966 -2.08952,-2.35213 -1.53002,-0.42247 -2.74034,-0.11418 -2.74034,-0.11418 0,0 -1.35877,0.0685 -2.61476,1.55287 -1.25599,1.48435 -1.06189,3.08289 -1.06189,3.08289 0,0 -0.0571,1.75839 0.79928,3.16282 0.85636,1.40443 1.84974,1.98676 1.84974,1.98676 z"
       id="path26"
       sodipodi:nodetypes="cscscscccscscscscc" /><circle
       style="display:inline;fill:#2b2349;fill-opacity:1;stroke-width:0.0541315"
       id="path27"
       cx="97.467804"
       cy="13.146104"
       r="0.80497813" /><path
       style="display:inline;fill:#ffffff;fill-opacity:1;stroke-width:0.0479889"
       d="m 95.857857,16.965444 h 3.23704 v 2.43207 l -1.31309,-0.0171 c 0,0 -0.79927,0.0342 -1.42727,-0.81069 -0.62799,-0.84494 -0.49668,-1.60425 -0.49668,-1.60425 z"
       id="path28" /><path
       style="display:inline;fill:#fdbf99;fill-opacity:0.996078;stroke-width:0.0479889"
       d="m 109.78509,18.019864 c 0,0 0.58604,1.84279 2.2977,2.94083 3.34059,2.14302 5.71999,1.81072 6.97107,1.61281 1.59492,-0.2523 2.13068,-1.43241 2.13068,-1.43241 0,0 0.48524,-0.77982 0.48524,-2.21696 v -2.48675 c 0,0 1.0496,-0.0969 1.17877,-0.59746 0.12919,-0.50058 -0.53287,-1.11419 -0.53287,-1.11419 0,0 -0.27515,-0.1861 -0.55473,-0.4903 -0.0512,-0.21857 -0.0341,-1.34205 -0.0341,-1.34205 l -0.0276,-3.13982 c 0,0 0.22509,-2.22219 -2.13247,-4.09532 -2.35756,-1.8731342 -5.80941,-1.4607942 -5.80941,-1.4607942 0,0 -2.50289,0.0323 -4.45676,1.8731342 -1.95387,1.84083 -1.84437,4.00507 -1.84437,4.00507 l 0.73076,5.13816 z"
       id="path25-9"
       sodipodi:nodetypes="csscscsccccscsccc" /><path
       style="display:inline;fill:#f4e7da;fill-opacity:0.996078;stroke-width:0.0479889"
       d="m 109.77416,18.045514 c 0,0 0.35396,0.0342 0.98196,-0.52524 0.628,-0.55949 0.49098,-0.9477 0.49098,-0.9477 0,0 -1.1989,-0.36538 -1.74698,-1.43868 -0.54806,-1.07331 -0.0571,-1.91825 -0.0571,-1.91825 0,0 0.49098,-0.93629 1.3816,-1.02763 0.89061,-0.0913 1.42726,0.45672 1.42726,0.45672 0,0 0.46815,0.47956 0.57091,1.16465 0.5024,-0.0228 1.01621,-0.0343 1.01621,-0.0343 0,0 0.83353,-1.0733 0.81069,-1.99817 -0.0228,-0.92487 -0.13702,-1.67847 -0.13702,-1.67847 0,0 -0.55949,-1.92966 -2.08952,-2.35213 -1.53002,-0.42247 -2.74034,-0.11418 -2.74034,-0.11418 0,0 -1.35877,0.0685 -2.61476,1.55287 -1.25599,1.48435 -1.06189,3.08289 -1.06189,3.08289 0,0 -0.0571,1.75839 0.79928,3.16282 0.85636,1.40443 1.84974,1.98676 1.84974,1.98676 z"
       id="path26-6"
       sodipodi:nodetypes="cscscscccscscscscc" /><path
       style="display:inline;fill:#ffffff;fill-opacity:1;stroke-width:0.0479889"
       d="m 117.86391,16.966494 h 3.23704 v 2.43207 l -1.31309,-0.0171 c 0,0 -0.79927,0.0342 -1.42727,-0.81069 -0.62799,-0.84494 -0.49668,-1.60425 -0.49668,-1.60425 z"
       id="path28-3" /><path
       style="display:inline;opacity:1;fill:none;fill-opacity:1;stroke:#2b2349;stroke-width:0.365;stroke-linecap:round;stroke-dasharray:none;stroke-opacity:1"
       d="m 118.70426,13.215323 c 0,0 0.21984,-0.480031 0.79328,-0.447417 0.57345,0.03259 0.76915,0.491094 0.76915,0.491094"
       id="path29"
       sodipodi:nodetypes="czc" /></g></svg>
